<?xml version="1.0" encoding="UTF-8"?>
<svg version="1.1" xmlns="http://www.w3.org/2000/svg" width="225" height="225">
<path d="M0 0 C74.25 0 148.5 0 225 0 C225 74.25 225 148.5 225 225 C150.75 225 76.5 225 0 225 C0 150.75 0 76.5 0 0 Z " fill="#FEAEF2" transform="translate(0,0)"/>
<path d="M0 0 C4 4.84210526 4 4.84210526 4 8 C5.32 8 6.64 8 8 8 C8.66 7.319375 9.32 6.63875 10 5.9375 C10.66 5.298125 11.32 4.65875 12 4 C14.47824913 4.07509846 15.68423729 4.79700968 17.75 6.125 C19.81856074 9.22784112 19.55366358 11.37042765 19 15 C17.29965997 17.381516 15.39047088 19.30933018 13 21 C12.34 21 11.68 21 11 21 C11.78070813 23.96133748 12.57641421 26.91843802 13.375 29.875 C13.59671875 30.71675781 13.8184375 31.55851562 14.046875 32.42578125 C14.26601562 33.23144531 14.48515625 34.03710938 14.7109375 34.8671875 C14.90993652 35.61081543 15.10893555 36.35444336 15.31396484 37.12060547 C15.92586032 39.20704055 15.92586032 39.20704055 18 41 C18.4140625 43.1640625 18.4140625 43.1640625 18.625 45.625 C18.73714844 46.85089844 18.73714844 46.85089844 18.8515625 48.1015625 C18.90054688 48.72804687 18.94953125 49.35453125 19 50 C19.66 50 20.32 50 21 50 C23.42614476 58.82365744 24.40411834 66.85495156 24 76 C22.68 76 21.36 76 20 76 C18.72746564 72.35206816 17.67170806 68.8063457 17 65 C16.01 65 15.02 65 14 65 C13.94392578 64.07767578 13.94392578 64.07767578 13.88671875 63.13671875 C13.82097656 62.32847656 13.75523438 61.52023438 13.6875 60.6875 C13.62949219 59.88699219 13.57148437 59.08648437 13.51171875 58.26171875 C12.90920312 55.59869165 12.00334108 54.78245988 10 53 C8.9375 50.625 8.9375 50.625 8 48 C7.505 46.7934375 7.505 46.7934375 7 45.5625 C5.25838999 41.09962436 3.83349608 36.72314444 3 32 C2.05125 32.495 1.1025 32.99 0.125 33.5 C-3 35 -3 35 -5 35 C-5 35.66 -5 36.32 -5 37 C-8.82132943 40.48945219 -13.03231242 43.44759763 -18 45 C-18 45.66 -18 46.32 -18 47 C-18.66 47 -19.32 47 -20 47 C-20 47.66 -20 48.32 -20 49 C-21.32 49 -22.64 49 -24 49 C-24.020625 49.598125 -24.04125 50.19625 -24.0625 50.8125 C-25 53 -25 53 -28.1875 54.5 C-28.81269531 54.7371875 -29.43789063 54.974375 -30.08203125 55.21875 C-33.03313968 56.42083083 -35.47491355 58.07612461 -38 60 C-38.33 60.99 -38.66 61.98 -39 63 C-41.8125 64.0625 -41.8125 64.0625 -45 65 C-46.34721283 65.63815344 -47.68747118 66.29325371 -49 67 C-49 67.66 -49 68.32 -49 69 C-50.26839526 69.50615298 -51.53983102 70.00469099 -52.8125 70.5 C-53.52019531 70.7784375 -54.22789063 71.056875 -54.95703125 71.34375 C-57 72 -57 72 -60 72 C-60.4140625 69.875 -60.4140625 69.875 -60 67 C-58.06194174 64.67744343 -55.7390996 62.87415542 -53.375 61 C-52.75753906 60.49210937 -52.14007813 59.98421875 -51.50390625 59.4609375 C-50.27252956 58.44991243 -49.03621633 57.4448684 -47.79492188 56.44604492 C-44.54147349 53.82496565 -41.33115232 51.15195874 -38.171875 48.41796875 C-34.22222222 45 -34.22222222 45 -32 45 C-32 44.34 -32 43.68 -32 43 C-31.34 43 -30.68 43 -30 43 C-30 42.34 -30 41.68 -30 41 C-28.34765625 39.51953125 -28.34765625 39.51953125 -26.0625 37.8125 C-25.24394531 37.19246094 -24.42539063 36.57242188 -23.58203125 35.93359375 C-22.72996094 35.29550781 -21.87789062 34.65742188 -21 34 C-14.80904624 29.38843675 -14.80904624 29.38843675 -9.1875 24.125 C-7.02215729 22.02152422 -5.95297024 21.3281078 -3 21 C-3.474375 20.2575 -3.94875 19.515 -4.4375 18.75 C-6 16 -6 16 -6.4375 13.8125 C-6.8486428 11.78004532 -6.8486428 11.78004532 -9.0625 10.75 C-10.0215625 10.37875 -10.0215625 10.37875 -11 10 C-11.3125 7.25 -11.3125 7.25 -11 4 C-7.69320054 0.30416531 -4.91911164 -1.0466195 0 0 Z " fill="#2E2A2E" transform="translate(93,123)"/>
<path d="M0 0 C2 2 2 2 2 6 C1.00097656 6.13277344 0.00195312 6.26554687 -1.02734375 6.40234375 C-2.96287109 6.66724609 -2.96287109 6.66724609 -4.9375 6.9375 C-6.22527344 7.11152344 -7.51304687 7.28554687 -8.83984375 7.46484375 C-11.85466313 7.66162423 -11.85466313 7.66162423 -13 9 C-14.83512958 8.96780474 -16.67081192 8.93205171 -18.50390625 8.83984375 C-21.20415684 8.92897556 -21.20415684 8.92897556 -24.51611328 9.96118164 C-29.39988973 11.2062243 -34.21932805 11.51042286 -39.23828125 11.78125 C-40.6804023 11.86977234 -40.6804023 11.86977234 -42.1516571 11.96008301 C-45.20489535 12.14715272 -48.25856713 12.32466151 -51.3125 12.5 C-54.35569592 12.67563878 -57.39864056 12.85368798 -60.44120789 13.03991699 C-62.32642562 13.15529368 -64.21201246 13.26485647 -66.09797668 13.36730957 C-71.66794438 13.70787168 -77.01240617 14.46386425 -82.47941589 15.58996582 C-85.03225219 16.0052466 -87.41852412 16.07045238 -90 16 C-91.97381764 13.25858661 -91.99349535 11.92714792 -91.6875 8.5 C-89.62522414 4.22268711 -88.29365517 3.56189635 -84.0480957 1.81201172 C-77.30436792 0.0154848 -70.18608837 0.35666078 -63.25 0.3125 C-61.58582119 0.28737201 -59.92167455 0.26001714 -58.25756836 0.23046875 C-54.98996376 0.17296438 -51.72237987 0.12231794 -48.45458984 0.07666016 C-42.81890551 -0.01053509 -37.1919043 -0.22332343 -31.5625 -0.5 C-30.75522461 -0.53569092 -29.94794922 -0.57138184 -29.11621094 -0.6081543 C-5.31069385 -1.784922 -5.31069385 -1.784922 0 0 Z " fill="#322B32" transform="translate(213,103)"/>
<path d="M0 0 C3.43577948 1.36936229 6.22894087 3.01151988 9.31640625 5.046875 C9.90147949 5.43101563 10.48655273 5.81515625 11.08935547 6.2109375 C12.40661558 7.07811411 13.72158925 7.94877049 15.03466797 8.82226562 C17.48869394 10.45288354 19.95130032 12.07010958 22.4140625 13.6875 C31.0089463 19.35276642 39.50097486 25.06259929 47.671875 31.328125 C55.58939008 37.40636559 55.58939008 37.40636559 64.25390625 42.296875 C64.25390625 42.956875 64.25390625 43.616875 64.25390625 44.296875 C65.24390625 44.296875 66.23390625 44.296875 67.25390625 44.296875 C68.78237286 47.35380822 68.4863307 49.92672047 68.25390625 53.296875 C67.06640625 55.734375 67.06640625 55.734375 65.25390625 57.296875 C61.77832232 57.85320771 60.49001432 57.45563732 57.53515625 55.46875 C56.61734375 54.66953125 55.69953125 53.8703125 54.75390625 53.046875 C53.83609375 52.25796875 52.91828125 51.4690625 51.97265625 50.65625 C51.07546875 49.87765625 50.17828125 49.0990625 49.25390625 48.296875 C48.37734375 47.60078125 47.50078125 46.9046875 46.59765625 46.1875 C44.67240454 44.63446362 42.9922469 43.04458676 41.25390625 41.296875 C38.30649793 38.89592897 35.27550962 36.60347984 32.25390625 34.296875 C31.16916016 33.46349609 31.16916016 33.46349609 30.0625 32.61328125 C27.18174083 30.42128044 24.38530122 28.37352206 21.25390625 26.546875 C20.59390625 26.134375 19.93390625 25.721875 19.25390625 25.296875 C19.25390625 24.636875 19.25390625 23.976875 19.25390625 23.296875 C18.53203125 23.049375 17.81015625 22.801875 17.06640625 22.546875 C13.99477512 21.18170561 11.84343105 19.4216133 9.25390625 17.296875 C7.94251721 16.58801606 6.61613608 15.90231048 5.25390625 15.296875 C5.25390625 13.646875 5.25390625 11.996875 5.25390625 10.296875 C3.27390625 10.296875 1.29390625 10.296875 -0.74609375 10.296875 C-1.41764308 9.00774013 -2.08318234 7.71547296 -2.74609375 6.421875 C-3.11734375 5.70257813 -3.48859375 4.98328125 -3.87109375 4.2421875 C-4.74609375 2.296875 -4.74609375 2.296875 -4.74609375 0.296875 C-2.74609375 -0.703125 -2.74609375 -0.703125 0 0 Z " fill="#322930" transform="translate(21.74609375,47.703125)"/>
<path d="M0 0 C1.98 0 3.96 0 6 0 C6.20819284 8.05012333 6.07166664 15.88167287 5.0625 23.875 C4.97564941 24.57044922 4.88879883 25.26589844 4.79931641 25.98242188 C4.13726837 30.86273163 4.13726837 30.86273163 3 32 C2.71262418 34.67761276 2.55168541 37.35570146 2.37890625 40.04296875 C2 43 2 43 1.07421875 45.75 C-0.07291467 49.22060001 -0.67964517 52.58937921 -1.29199219 56.18432617 C-4.30367626 73.46619131 -4.30367626 73.46619131 -10 78 C-12.95158156 79.07773345 -14.77952391 79.10916868 -18 79 C-19 78 -19 78 -19.25 75.1875 C-19 72 -19 72 -17.57421875 70.16015625 C-15.66009886 67.53358479 -15.21179102 65.42789642 -14.5625 62.25 C-13.41208099 56.89355169 -12.19462247 51.56675712 -10.875 46.25 C-10.70427979 45.54649414 -10.53355957 44.84298828 -10.35766602 44.11816406 C-9.11733757 39.11733757 -9.11733757 39.11733757 -8 38 C-7.63239269 35.67182036 -7.29758419 33.3381615 -7 31 C-6.34 31 -5.68 31 -5 31 C-5.02320312 30.10796875 -5.04640625 29.2159375 -5.0703125 28.296875 C-5.09738281 26.54117188 -5.09738281 26.54117188 -5.125 24.75 C-5.14820312 23.58984375 -5.17140625 22.4296875 -5.1953125 21.234375 C-5.00596673 18.09880905 -4.52299936 16.65652941 -3 14 C-2.64820803 11.6693782 -2.31669821 9.33564933 -2 7 C-1.40712505 4.63769206 -0.71332222 2.33018593 0 0 Z " fill="#2E292D" transform="translate(122,19)"/>
<path d="M0 0 C1.45132468 2.75876804 2.55345428 5.46925609 3.5 8.4375 C4.29158096 10.87588759 5.10012206 13.24736037 6.0625 15.625 C7.66913432 19.69514029 9 23.60631694 9 28 C9.66 28 10.32 28 11 28 C13.42614476 36.82365744 14.40411834 44.85495156 14 54 C12.68 54 11.36 54 10 54 C8.72746564 50.35206816 7.67170806 46.8063457 7 43 C6.01 43 5.02 43 4 43 C3.96261719 42.38511719 3.92523438 41.77023438 3.88671875 41.13671875 C3.78810547 39.92435547 3.78810547 39.92435547 3.6875 38.6875 C3.62949219 37.88699219 3.57148437 37.08648437 3.51171875 36.26171875 C2.90920312 33.59869165 2.00334108 32.78245988 0 31 C-1.0625 28.625 -1.0625 28.625 -2 26 C-2.33 25.195625 -2.66 24.39125 -3 23.5625 C-4.74161001 19.09962436 -6.16650392 14.72314444 -7 10 C-7.99 9.67 -8.98 9.34 -10 9 C-8.35 9 -6.7 9 -5 9 C-4.67 8.34 -4.34 7.68 -4 7 C-4 8.98 -4 10.96 -4 13 C-3.34 13 -2.68 13 -2 13 C-0.74335022 15.90600261 0 17.79604584 0 21 C0.99 20.67 1.98 20.34 3 20 C2.44765239 15.16004905 2.44765239 15.16004905 0.9375 10.5625 C-0.38654146 6.94345335 -0.13023559 3.84195003 0 0 Z " fill="#382736" transform="translate(103,145)"/>
<path d="M0 0 C1.98 0 3.96 0 6 0 C6.27256607 10.53922138 5.53370124 20.57904782 4 31 C3.34 31 2.68 31 2 31 C1.67 31.66 1.34 32.32 1 33 C0.34 33 -0.32 33 -1 33 C-0.01 29.7 0.98 26.4 2 23 C1.34 23 0.68 23 0 23 C0 21.35 0 19.7 0 18 C-1.80619523 22.46236469 -2.11658501 25.31034294 -1 30 C-2.33333333 30 -3.66666667 30 -5 30 C-5.05423638 28.08364783 -5.09289963 26.16685075 -5.125 24.25 C-5.14820312 23.18265625 -5.17140625 22.1153125 -5.1953125 21.015625 C-5.00093807 18.01448378 -4.44581865 16.56605219 -3 14 C-2.64820803 11.6693782 -2.31669821 9.33564933 -2 7 C-1.40712505 4.63769206 -0.71332222 2.33018593 0 0 Z " fill="#362633" transform="translate(122,19)"/>
<path d="M0 0 C0.66 0 1.32 0 2 0 C1.20660093 4.20987262 0.18234195 8.35046923 -0.875 12.5 C-2.46575463 18.74769422 -3.90056121 25.01020022 -5.19140625 31.328125 C-6.03950919 34.13055211 -7.23240052 35.70794792 -9 38 C-9.25086724 41.16732421 -9.25086724 41.16732421 -9 44 C-6.36 44 -3.72 44 -1 44 C-0.7525 43.443125 -0.505 42.88625 -0.25 42.3125 C1.21606015 39.60028873 3.02989471 37.36412635 5 35 C5 37.64 5 40.28 5 43 C4.195625 43.2475 3.39125 43.495 2.5625 43.75 C1.716875 44.1625 0.87125 44.575 0 45 C-0.74276031 46.97080157 -0.74276031 46.97080157 -1 49 C-1.66 49.66 -2.32 50.32 -3 51 C-3.99 51 -4.98 51 -6 51 C-5.67 49.35 -5.34 47.7 -5 46 C-5.66 46 -6.32 46 -7 46 C-7.33 46.66 -7.66 47.32 -8 48 C-8.99 47.67 -9.98 47.34 -11 47 C-11.33 46.34 -11.66 45.68 -12 45 C-13.98 45.495 -13.98 45.495 -16 46 C-16.495 44.515 -16.495 44.515 -17 43 C-16.34 43 -15.68 43 -15 43 C-15 40.36 -15 37.72 -15 35 C-14.21625 34.855625 -13.4325 34.71125 -12.625 34.5625 C-10.03578982 34.12201075 -10.03578982 34.12201075 -8 33 C-7.30662208 29.9600352 -7.30662208 29.9600352 -6.875 26.4375 C-6.70742187 25.23996094 -6.53984375 24.04242188 -6.3671875 22.80859375 C-6.24601562 21.88175781 -6.12484375 20.95492187 -6 20 C-5.34 20 -4.68 20 -4 20 C-4.20625 18.948125 -4.4125 17.89625 -4.625 16.8125 C-5.01670412 12.83017476 -4.66557681 11.5064775 -3 8 C-2.649375 6.7625 -2.29875 5.525 -1.9375 4.25 C-1 1 -1 1 0 0 Z " fill="#EDA9E3" transform="translate(113,53)"/>
<path d="M0 0 C3.73896422 1.50793132 6.97687306 3.48233086 10.3125 5.7109375 C11.19808594 6.29101562 11.19808594 6.29101562 12.1015625 6.8828125 C13.84367833 8.02631584 15.57906547 9.17932508 17.3125 10.3359375 C18.19035156 10.92036621 18.19035156 10.92036621 19.0859375 11.51660156 C20.49542377 12.45543191 21.90405635 13.39554372 23.3125 14.3359375 C22.9825 15.3259375 22.6525 16.3159375 22.3125 17.3359375 C21.6525 17.3359375 20.9925 17.3359375 20.3125 17.3359375 C20.3125 16.6759375 20.3125 16.0159375 20.3125 15.3359375 C18.6625 15.3359375 17.0125 15.3359375 15.3125 15.3359375 C14.9825 14.3459375 14.6525 13.3559375 14.3125 12.3359375 C13.9825 12.6659375 13.6525 12.9959375 13.3125 13.3359375 C13.3125 13.9959375 13.3125 14.6559375 13.3125 15.3359375 C12.6525 15.3359375 11.9925 15.3359375 11.3125 15.3359375 C11.3125 15.9959375 11.3125 16.6559375 11.3125 17.3359375 C9.3325 16.6759375 7.3525 16.0159375 5.3125 15.3359375 C5.3125 13.6859375 5.3125 12.0359375 5.3125 10.3359375 C3.3325 10.3359375 1.3525 10.3359375 -0.6875 10.3359375 C-1.35904933 9.04680263 -2.02458859 7.75453546 -2.6875 6.4609375 C-3.05875 5.74164063 -3.43 5.02234375 -3.8125 4.28125 C-4.6875 2.3359375 -4.6875 2.3359375 -4.6875 0.3359375 C-2.6875 -0.6640625 -2.6875 -0.6640625 0 0 Z " fill="#312333" transform="translate(21.6875,47.6640625)"/>
<path d="M0 0 C4 4.84210526 4 4.84210526 4 8 C5.32 8.33 6.64 8.66 8 9 C8 9.66 8 10.32 8 11 C6.68 11 5.36 11 4 11 C3.01 12.485 3.01 12.485 2 14 C1.34 13.67 0.68 13.34 0 13 C0 13.66 0 14.32 0 15 C-2 14 -2 14 -3 13 C-3 14.32 -3 15.64 -3 17 C-4.32 16.34 -5.64 15.68 -7 15 C-7 14.01 -7 13.02 -7 12 C-8.32 11.34 -9.64 10.68 -11 10 C-11.3125 7.25 -11.3125 7.25 -11 4 C-7.69320054 0.30416531 -4.91911164 -1.0466195 0 0 Z " fill="#383038" transform="translate(93,123)"/>
<path d="M0 0 C1.35852368 3.66801395 0.47642805 5.49348338 -1 9 C-0.505 9.99 -0.505 9.99 0 11 C-2 10 -4 9 -6 8 C-6.33 9.32 -6.66 10.64 -7 12 C-7.66 12 -8.32 12 -9 12 C-8.67 12.99 -8.34 13.98 -8 15 C-9.175625 15.2165625 -9.175625 15.2165625 -10.375 15.4375 C-12.96421018 15.87798925 -12.96421018 15.87798925 -15 17 C-15 17.66 -15 18.32 -15 19 C-15.66 19 -16.32 19 -17 19 C-15.27144074 21.14567913 -15.27144074 21.14567913 -13 23 C-10.78141747 22.86358623 -10.78141747 22.86358623 -9 22 C-9.66 22.33 -10.32 22.66 -11 23 C-11 23.66 -11 24.32 -11 25 C-11.66 25 -12.32 25 -13 25 C-13 25.66 -13 26.32 -13 27 C-13.66 27 -14.32 27 -15 27 C-15.66 26.34 -16.32 25.68 -17 25 C-17 24.01 -17 23.02 -17 22 C-17.69867188 22.433125 -18.39734375 22.86625 -19.1171875 23.3125 C-20.02726562 23.869375 -20.93734375 24.42625 -21.875 25 C-22.77992187 25.556875 -23.68484375 26.11375 -24.6171875 26.6875 C-27 28 -27 28 -29 28 C-29 28.66 -29 29.32 -29 30 C-30.32 29.34 -31.64 28.68 -33 28 C-27.25 23 -27.25 23 -25 23 C-25 22.34 -25 21.68 -25 21 C-24.34 21 -23.68 21 -23 21 C-23 20.34 -23 19.68 -23 19 C-21.34765625 17.51953125 -21.34765625 17.51953125 -19.0625 15.8125 C-18.24394531 15.19246094 -17.42539063 14.57242188 -16.58203125 13.93359375 C-15.72996094 13.29550781 -14.87789062 12.65742188 -14 12 C-9.03791865 8.23648902 -4.27024982 4.54574981 0 0 Z " fill="#402E3F" transform="translate(86,145)"/>
<path d="M0 0 C0 0.33 0 0.66 0 1 C-2.97 1 -5.94 1 -9 1 C-9 1.66 -9 2.32 -9 3 C-11.475 2.505 -11.475 2.505 -14 2 C-14 2.66 -14 3.32 -14 4 C-16.5258771 5.26293855 -18.40945736 5.19181172 -21.234375 5.28125 C-22.80832031 5.33732422 -22.80832031 5.33732422 -24.4140625 5.39453125 C-25.51492187 5.42933594 -26.61578125 5.46414062 -27.75 5.5 C-29.91157686 5.56931422 -32.07304492 5.64212583 -34.234375 5.71875 C-35.67635254 5.76418945 -35.67635254 5.76418945 -37.14746094 5.81054688 C-40.14963808 6.0099383 -43.03806416 6.48166773 -46 7 C-47.39528567 7.03909732 -48.79237794 7.0445548 -50.1875 7 C-53.9242371 6.79906361 -53.9242371 6.79906361 -57 8 C-59.5808926 7.91255992 -62.11691478 7.77131505 -64.6875 7.5625 C-65.7403418 7.48418945 -65.7403418 7.48418945 -66.81445312 7.40429688 C-68.54338054 7.27492135 -70.27175355 7.13817469 -72 7 C-72 6.67 -72 6.34 -72 6 C-64.7799897 4.54330225 -57.71432265 3.61808791 -50.36328125 3.21875 C-48.38476519 3.09766338 -46.40624958 2.97656942 -44.42773438 2.85546875 C-41.36038271 2.67589006 -38.29289386 2.49887433 -35.2253418 2.32275391 C-32.22924942 2.14843754 -29.23379984 1.96512521 -26.23828125 1.78125 C-25.32975906 1.73222534 -24.42123688 1.68320068 -23.48518372 1.63269043 C-15.26926655 1.12485529 -8.18480306 -1.46157197 0 0 Z " fill="#E3AEDC" transform="translate(200,112)"/>
<path d="M0 0 C0.33 0.66 0.66 1.32 1 2 C3.31 1.34 5.62 0.68 8 0 C8.33 0.99 8.66 1.98 9 3 C6.98177083 3.45572917 4.96354167 3.91145833 2.9453125 4.3671875 C0.79280036 4.90474428 0.79280036 4.90474428 -1 7 C-1.41666667 10 -1.41666667 10 -1 13 C-0.01 13.66 0.98 14.32 2 15 C4.00382711 17.92867039 5.35247261 20.50335208 6 24 C3.32521756 25.6627026 1.0004856 26.99983813 -2 28 C-2.33 28.66 -2.66 29.32 -3 30 C-3.33 30.66 -3.66 31.32 -4 32 C-5.485 32.495 -5.485 32.495 -7 33 C-7.66 31.02 -8.32 29.04 -9 27 C-7 25 -7 25 -3.875 24.875 C-2.451875 24.936875 -2.451875 24.936875 -1 25 C-1.66 24.67 -2.32 24.34 -3 24 C-3.69773252 21.05109273 -3.80060298 18.01877809 -4 15 C-4.09861328 13.81857422 -4.09861328 13.81857422 -4.19921875 12.61328125 C-4.47254901 7.06184939 -3.53035689 4.30262246 0 0 Z " fill="#F6B0EE" transform="translate(84,120)"/>
<path d="M0 0 C0.82757813 0.33451172 0.82757813 0.33451172 1.671875 0.67578125 C1.671875 1.99578125 1.671875 3.31578125 1.671875 4.67578125 C1.011875 4.67578125 0.351875 4.67578125 -0.328125 4.67578125 C-0.34875 5.27390625 -0.369375 5.87203125 -0.390625 6.48828125 C-1.328125 8.67578125 -1.328125 8.67578125 -4.640625 10.30078125 C-5.8575 10.75453125 -7.074375 11.20828125 -8.328125 11.67578125 C-9.66825997 12.32866752 -11.00554028 12.9880372 -12.328125 13.67578125 C-13.648125 11.69578125 -14.968125 9.71578125 -16.328125 7.67578125 C-15.668125 7.34578125 -15.008125 7.01578125 -14.328125 6.67578125 C-13.668125 7.00578125 -13.008125 7.33578125 -12.328125 7.67578125 C-12.328125 7.01578125 -12.328125 6.35578125 -12.328125 5.67578125 C-10.28125 4.1328125 -10.28125 4.1328125 -7.578125 2.48828125 C-6.69640625 1.93785156 -5.8146875 1.38742188 -4.90625 0.8203125 C-2.328125 -0.32421875 -2.328125 -0.32421875 0 0 Z " fill="#3C2836" transform="translate(69.328125,167.32421875)"/>
<path d="M0 0 C3.98363358 1.32787786 6.10630834 3.00985195 9 6 C9.99 6.33 10.98 6.66 12 7 C12 7.66 12 8.32 12 9 C12.66 9.33 13.32 9.66 14 10 C14 10.99 14 11.98 14 13 C14.66 13.33 15.32 13.66 16 14 C16 13.34 16 12.68 16 12 C17.65 11.67 19.3 11.34 21 11 C21 11.66 21 12.32 21 13 C18.08291076 14.98362069 16.87619096 14.9876191 13.25 14.625 C12.1775 14.41875 11.105 14.2125 10 14 C10 13.34 10 12.68 10 12 C9.01 12 8.02 12 7 12 C6.67 11.01 6.34 10.02 6 9 C4.02 9 2.04 9 0 9 C0 8.01 0 7.02 0 6 C-0.185625 5.13375 -0.37125 4.2675 -0.5625 3.375 C-0.706875 2.59125 -0.85125 1.8075 -1 1 C-0.67 0.67 -0.34 0.34 0 0 Z " fill="#2B2629" transform="translate(51,70)"/>
<path d="M0 0 C0.515625 0.350625 1.03125 0.70125 1.5625 1.0625 C4.94006667 2.3615641 7.50468057 1.67217681 11 1 C10.67 2.65 10.34 4.3 10 6 C13.13498292 7.85776765 15.37471432 8.20140476 19 8 C19.99435406 11.09354597 19.87840996 12.90279155 19 16 C18.32195313 15.56429687 17.64390625 15.12859375 16.9453125 14.6796875 C10.69196833 10.67824012 4.38789669 6.78285422 -2 3 C-1.34 2.67 -0.68 2.34 0 2 C0 1.34 0 0.68 0 0 Z " fill="#E5ABDD" transform="translate(28,48)"/>
<path d="M0 0 C0.66 0 1.32 0 2 0 C2 0.66 2 1.32 2 2 C2.99 2 3.98 2 5 2 C6.52846661 5.05693322 6.23242445 7.62984547 6 11 C4.8125 13.4375 4.8125 13.4375 3 15 C-0.35848027 15.49457073 -1.75393754 15.15122963 -4.67578125 13.35546875 C-5.54589844 12.64003906 -6.41601562 11.92460938 -7.3125 11.1875 C-8.19550781 10.47980469 -9.07851562 9.77210937 -9.98828125 9.04296875 C-12 7 -12 7 -12 4 C-11.01 4 -10.02 4 -9 4 C-9 4.99 -9 5.98 -9 7 C-8.236875 7.268125 -7.47375 7.53625 -6.6875 7.8125 C-4.12619116 8.94424112 -2.80307062 9.91223401 -1 12 C0.35618499 10.87465895 0.35618499 10.87465895 0.0625 7.9375 C0.041875 6.968125 0.02125 5.99875 0 5 C0.99 4.67 1.98 4.34 3 4 C2.505 3.525625 2.01 3.05125 1.5 2.5625 C0 1 0 1 0 0 Z " fill="#40263D" transform="translate(84,90)"/>
<path d="M0 0 C9.69527822 -0.19219715 19.32867432 0.40418676 29 1 C29 1.33 29 1.66 29 2 C25.3334242 2.14816854 21.66672393 2.29304687 18 2.4375 C16.28756104 2.50626343 16.28756104 2.50626343 14.54052734 2.57641602 C7.79036795 2.84021431 1.04231509 3.0575956 -5.7109375 3.21875 C-7.88607757 3.27404529 -10.06120314 3.32988749 -12.23632812 3.38577271 C-13.65845024 3.42016907 -15.0806586 3.45117234 -16.50292969 3.47872925 C-18.50994621 3.5178075 -20.51671122 3.56920853 -22.5234375 3.62109375 C-23.67763184 3.6461499 -24.83182617 3.67120605 -26.02099609 3.69702148 C-28.93614692 3.99350585 -30.46292848 4.65761458 -33 6 C-34.32 6 -35.64 6 -37 6 C-37 5.34 -37 4.68 -37 4 C-29.3806168 0.2194642 -22.34640446 0.85062747 -14 1.3125 C-12.63939329 1.37587827 -11.27871505 1.43773996 -9.91796875 1.49804688 C-6.61096993 1.65049718 -3.30549554 1.81823594 0 2 C0 1.34 0 0.68 0 0 Z " fill="#CC9BC5" transform="translate(161,101)"/>
<path d="M0 0 C1.65 0.33 3.3 0.66 5 1 C4.77239693 3.29399934 4.51721121 5.58527637 4.25 7.875 C4.04117188 9.78925781 4.04117188 9.78925781 3.828125 11.7421875 C3 15 3 15 0.921875 16.4453125 C0.28765625 16.62835938 -0.3465625 16.81140625 -1 17 C-2.39543043 14.20913914 -1.90230506 12.15407671 -1.625 9.0625 C-1.53476563 8.00160156 -1.44453125 6.94070312 -1.3515625 5.84765625 C-1 3 -1 3 0 0 Z " fill="#2F262C" transform="translate(111,79)"/>
<path d="M0 0 C0.66 0.33 1.32 0.66 2 1 C2 5.29 2 9.58 2 14 C2.66 14.33 3.32 14.66 4 15 C-2.15234375 15.87890625 -2.15234375 15.87890625 -4 16 C-5 15 -5 15 -5.25 12.1875 C-4.9686765 8.60062535 -4.250706 7.68353408 -2 5 C-1.28837557 3.35202764 -0.60968047 1.68834592 0 0 Z " fill="#372733" transform="translate(108,82)"/>
<path d="M0 0 C1.98 0 3.96 0 6 0 C6 4.29 6 8.58 6 13 C5.34 12.34 4.68 11.68 4 11 C1.94603274 11.40929986 1.94603274 11.40929986 0 12 C-0.33 11.67 -0.66 11.34 -1 11 C-0.91015699 9.14227838 -0.75388139 7.28752015 -0.5625 5.4375 C-0.46066406 4.42558594 -0.35882813 3.41367187 -0.25390625 2.37109375 C-0.17011719 1.58863281 -0.08632812 0.80617188 0 0 Z " fill="#2E202F" transform="translate(122,19)"/>
<path d="M0 0 C7.50858599 3.68940398 13.66848117 8.56791188 20 14 C19.67 14.66 19.34 15.32 19 16 C18.34 16 17.68 16 17 16 C17 16.66 17 17.32 17 18 C16.01 17.67 15.02 17.34 14 17 C13.67 15.02 13.34 13.04 13 11 C12.13375 10.8453125 12.13375 10.8453125 11.25 10.6875 C8.61403422 9.88206601 7.13048015 8.74312012 5 7 C4.0925 6.34 3.185 5.68 2.25 5 C1.5075 4.34 0.765 3.68 0 3 C0 2.01 0 1.02 0 0 Z " fill="#3C263A" transform="translate(50,66)"/>
<path d="M0 0 C0.66 0.99 1.32 1.98 2 3 C0.68 4.65 -0.64 6.3 -2 8 C-0.68 8 0.64 8 2 8 C1.67 7.01 1.34 6.02 1 5 C2 4 2 4 4.5625 3.9375 C5.7690625 3.9684375 5.7690625 3.9684375 7 4 C6.01 5.485 6.01 5.485 5 7 C4.34 7 3.68 7 3 7 C3 7.66 3 8.32 3 9 C1.73160474 9.50615298 0.46016898 10.00469099 -0.8125 10.5 C-1.52019531 10.7784375 -2.22789063 11.056875 -2.95703125 11.34375 C-5 12 -5 12 -8 12 C-8.25 9.73828125 -8.25 9.73828125 -8 7 C-6.25 4.98046875 -6.25 4.98046875 -4 3.1875 C-3.2575 2.58292969 -2.515 1.97835937 -1.75 1.35546875 C-1.1725 0.90816406 -0.595 0.46085938 0 0 Z " fill="#52334C" transform="translate(41,183)"/>
<path d="M0 0 C3.3 0 6.6 0 10 0 C9.67 0.99 9.34 1.98 9 3 C6.03 2.505 6.03 2.505 3 2 C3 2.66 3 3.32 3 4 C-5.58 4 -14.16 4 -23 4 C-17.88731328 0.59154218 -12.63415271 0.88080988 -6.625 0.9375 C-4.75714844 0.95103516 -4.75714844 0.95103516 -2.8515625 0.96484375 C-1.44003906 0.98224609 -1.44003906 0.98224609 0 1 C0 0.67 0 0.34 0 0 Z " fill="#F4B3ED" transform="translate(158,99)"/>
<path d="M0 0 C0.66 0 1.32 0 2 0 C1.20659962 4.20987959 0.18223245 8.3504375 -0.875 12.5 C-2.48924958 18.84610128 -3.95172754 25.20975262 -5.2890625 31.62109375 C-5.52367188 32.40613281 -5.75828125 33.19117188 -6 34 C-6.99 34.495 -6.99 34.495 -8 35 C-7.34 30.05 -6.68 25.1 -6 20 C-5.34 20 -4.68 20 -4 20 C-4.20625 18.948125 -4.4125 17.89625 -4.625 16.8125 C-5.01670412 12.83017476 -4.66557681 11.5064775 -3 8 C-2.649375 6.7625 -2.29875 5.525 -1.9375 4.25 C-1 1 -1 1 0 0 Z " fill="#C897C2" transform="translate(113,53)"/>
<path d="M0 0 C0.8841702 2.65251059 1.54196454 5.20708747 2.125 7.9375 C2.31320313 8.79214844 2.50140625 9.64679688 2.6953125 10.52734375 C3.00334822 13.02717208 2.7812986 14.62859368 2 17 C1.67 16.34 1.34 15.68 1 15 C0.34 15.66 -0.32 16.32 -1 17 C-4.76470588 6.71428571 -4.76470588 6.71428571 -4 3 C-2 1.1875 -2 1.1875 0 0 Z " fill="#D99BD0" transform="translate(108,141)"/>
<path d="M0 0 C0.33 0 0.66 0 1 0 C3.21211746 7.05112439 3.20177072 13.64657821 3 21 C1.68 21 0.36 21 -1 21 C-2.16756757 13.21621622 -2.16756757 13.21621622 -1 9 C-0.78807905 7.41974995 -0.60076629 5.83601539 -0.4375 4.25 C-0.35371094 3.45078125 -0.26992187 2.6515625 -0.18359375 1.828125 C-0.12300781 1.22484375 -0.06242187 0.6215625 0 0 Z " fill="#472B43" transform="translate(114,178)"/>
<path d="M0 0 C0.66 0.99 1.32 1.98 2 3 C2.66 2.34 3.32 1.68 4 1 C4 1.66 4 2.32 4 3 C4.66 3 5.32 3 6 3 C6 4.98 6 6.96 6 9 C6.66 9.33 7.32 9.66 8 10 C7.50168276 13.68754757 6.89932357 15.60490662 4 18 C3.01 17.67 2.02 17.34 1 17 C1.66 16.01 2.32 15.02 3 14 C3.24107326 11.71351152 3.24107326 11.71351152 3.125 9.3125 C3.10695313 8.50425781 3.08890625 7.69601563 3.0703125 6.86328125 C3.04710938 6.24839844 3.02390625 5.63351563 3 5 C2.01 5 1.02 5 0 5 C0 4.34 0 3.68 0 3 C-0.66 2.67 -1.32 2.34 -2 2 C-1.34 1.34 -0.68 0.68 0 0 Z " fill="#EDB3E9" transform="translate(86,87)"/>
<path d="M0 0 C2.4375 0.6875 2.4375 0.6875 5 2 C5.66015625 4.58203125 5.66015625 4.58203125 6 7 C3.5431099 7.38855926 1.08558167 7.76130088 -1.375 8.125 C-2.42300781 8.29322266 -2.42300781 8.29322266 -3.4921875 8.46484375 C-5.31787914 8.72816466 -7.1598762 8.8718116 -9 9 C-9.66 8.34 -10.32 7.68 -11 7 C-9.75336669 6.49166409 -8.50250613 5.99368855 -7.25 5.5 C-6.55390625 5.2215625 -5.8578125 4.943125 -5.140625 4.65625 C-3 4 -3 4 1 4 C0.67 2.68 0.34 1.36 0 0 Z " fill="#3C2B39" transform="translate(209,102)"/>
<path d="M0 0 C0.99 0.33 1.98 0.66 3 1 C3 3.97 3 6.94 3 10 C3.99 10 4.98 10 6 10 C7.4216319 13.3171411 8.39009109 16.44219804 9 20 C8.67 19.01 8.34 18.02 8 17 C7.1028125 17.3403125 7.1028125 17.3403125 6.1875 17.6875 C4 18 4 18 2.3125 16.9375 C0.57354617 14.37047292 0.33870054 12.04830482 0 9 C0.66 9 1.32 9 2 9 C1.34 6.03 0.68 3.06 0 0 Z " fill="#DEAAD8" transform="translate(104,178)"/>
<path d="M0 0 C0.33 0 0.66 0 1 0 C-0.02976366 16.68927316 -0.02976366 16.68927316 -4.6015625 21.78515625 C-5.06304687 22.18605469 -5.52453125 22.58695313 -6 23 C-5.88512252 21.41590006 -5.75765492 19.83271037 -5.625 18.25 C-5.55539063 17.36828125 -5.48578125 16.4865625 -5.4140625 15.578125 C-4.99725625 12.98291628 -4.20562432 11.30682448 -3 9 C-2.835 7.80375 -2.67 6.6075 -2.5 5.375 C-2 2 -2 2 0 0 Z " fill="#482B46" transform="translate(120,70)"/>
<path d="M0 0 C2.75137933 2.33155033 3.46424503 4.03686147 4.0625 7.5625 C4.64602448 11.19635678 4.64602448 11.19635678 7 14 C7.39764263 15.98821313 7.73775349 17.98944339 8 20 C7.34 20 6.68 20 6 20 C6 19.34 6 18.68 6 18 C4.68 17.67 3.36 17.34 2 17 C1.855625 15.88625 1.71125 14.7725 1.5625 13.625 C1.21627965 10.17857953 1.21627965 10.17857953 0 8 C-0.13415472 5.3276379 -0.04318541 2.67749512 0 0 Z " fill="#D6A2D1" transform="translate(96,158)"/>
<path d="M0 0 C2.32881766 1.12684726 3.48809399 1.76339098 4.9375 3.9375 C5.125 7.625 5.125 7.625 4.9375 10.9375 C2.9575 11.9275 2.9575 11.9275 0.9375 12.9375 C0.9375 10.2975 0.9375 7.6575 0.9375 4.9375 C-1.55314888 4.25042445 -3.44136292 3.9375 -6.0625 3.9375 C-2.6533684 -0.0804051 -2.6533684 -0.0804051 0 0 Z " fill="#492B46" transform="translate(107.0625,127.0625)"/>
<path d="M0 0 C1.2065625 0.0309375 1.2065625 0.0309375 2.4375 0.0625 C2.4375 1.0525 2.4375 2.0425 2.4375 3.0625 C3.0975 3.0625 3.7575 3.0625 4.4375 3.0625 C4.1075 7.3525 3.7775 11.6425 3.4375 16.0625 C1.03986815 13.66486815 1.09469414 12.72976502 0.8125 9.4375 C0.73773438 8.62023437 0.66296875 7.80296875 0.5859375 6.9609375 C0.51246094 6.02121094 0.51246094 6.02121094 0.4375 5.0625 C-1.2125 5.3925 -2.8625 5.7225 -4.5625 6.0625 C-3.48963568 0.08511307 -3.48963568 0.08511307 0 0 Z " fill="#2F2730" transform="translate(109.5625,169.9375)"/>
<path d="M0 0 C0.33 0 0.66 0 1 0 C1 1.65 1 3.3 1 5 C1.99 5.33 2.98 5.66 4 6 C4 6.33 4 6.66 4 7 C8.455 7.99 8.455 7.99 13 9 C13 9.33 13 9.66 13 10 C6.565 10.495 6.565 10.495 0 11 C-2 7 -2 7 -1.125 3.25 C-0.75375 2.1775 -0.3825 1.105 0 0 Z " fill="#4D3049" transform="translate(123,108)"/>
<path d="M0 0 C0.33 0.66 0.66 1.32 1 2 C3.31 1.34 5.62 0.68 8 0 C8.33 0.99 8.66 1.98 9 3 C6.98177083 3.45572917 4.96354167 3.91145833 2.9453125 4.3671875 C0.79280036 4.90474428 0.79280036 4.90474428 -1 7 C-1.16670273 9.95826106 -1.16670273 9.95826106 -1 13 C-1 13.99 -1 14.98 -1 16 C-1.99 15.67 -2.98 15.34 -4 15 C-4.51211281 8.59858988 -4.11888494 5.01989102 0 0 Z " fill="#E3A9DA" transform="translate(84,120)"/>
<path d="M0 0 C1.98 0 3.96 0 6 0 C6 0.66 6 1.32 6 2 C6.99 2 7.98 2 9 2 C9 2.99 9 3.98 9 5 C7.02 5.66 5.04 6.32 3 7 C3 7.66 3 8.32 3 9 C1.35 8.67 -0.3 8.34 -2 8 C-2 7.34 -2 6.68 -2 6 C-2.99 5.67 -3.98 5.34 -5 5 C-4.67 4.34 -4.34 3.68 -4 3 C-1.36 3 1.28 3 4 3 C4.33 2.34 4.66 1.68 5 1 C3.35 1 1.7 1 0 1 C0 0.67 0 0.34 0 0 Z " fill="#2A2326" transform="translate(197,102)"/>
<path d="M0 0 C1.125 3.75 1.125 3.75 0 6 C0.66 6 1.32 6 2 6 C1.50769231 12.4 1.50769231 12.4 -1.0625 15.4375 C-2.0215625 16.2109375 -2.0215625 16.2109375 -3 17 C-3.66 16.67 -4.32 16.34 -5 16 C-4.67 14.68 -4.34 13.36 -4 12 C-3.34 12 -2.68 12 -2 12 C-2.33 9.36 -2.66 6.72 -3 4 C-2.34 4 -1.68 4 -1 4 C-0.67 2.68 -0.34 1.36 0 0 Z " fill="#292826" transform="translate(122,36)"/>
<path d="M0 0 C1.84373465 1.06553496 3.67479236 2.15303177 5.5 3.25 C6.5209375 3.85328125 7.541875 4.4565625 8.59375 5.078125 C9.3878125 5.71234375 10.181875 6.3465625 11 7 C11 8.32 11 9.64 11 11 C10.01 10.67 9.02 10.34 8 10 C8 10.66 8 11.32 8 12 C6.68 11.67 5.36 11.34 4 11 C4.66 10.67 5.32 10.34 6 10 C5.34 9.34 4.68 8.68 4 8 C4.33 7.34 4.66 6.68 5 6 C4.360625 5.7525 3.72125 5.505 3.0625 5.25 C1 4 1 4 0.37109375 1.921875 C0.24863281 1.28765625 0.12617187 0.6534375 0 0 Z " fill="#E7AEE0" transform="translate(54,82)"/>
<path d="M0 0 C1.07765625 0.01804687 2.1553125 0.03609375 3.265625 0.0546875 C4.49539062 0.08949219 4.49539062 0.08949219 5.75 0.125 C5.75 1.115 5.75 2.105 5.75 3.125 C3.45954632 3.34627098 1.16755236 3.5516504 -1.125 3.75 C-3.03925781 3.92402344 -3.03925781 3.92402344 -4.9921875 4.1015625 C-6.06726563 4.10929687 -7.14234375 4.11703125 -8.25 4.125 C-8.91 3.465 -9.57 2.805 -10.25 2.125 C-6.7733662 -0.01836161 -4.03770805 -0.08777626 0 0 Z " fill="#473343" transform="translate(138.25,103.875)"/>
<path d="M0 0 C0.74958984 0.00451172 1.49917969 0.00902344 2.27148438 0.01367188 C4.11852383 0.02543646 5.96552213 0.04337135 7.8125 0.0625 C7.173125 0.371875 6.53375 0.68125 5.875 1 C3.87639179 1.8970163 3.87639179 1.8970163 2.8125 3.0625 C1.21616983 3.32419347 -0.39079125 3.52257377 -2 3.6875 C-3.30904297 3.83058594 -3.30904297 3.83058594 -4.64453125 3.9765625 C-7.07450112 4.0586813 -8.88103528 3.7829342 -11.1875 3.0625 C-11.1875 2.4025 -11.1875 1.7425 -11.1875 1.0625 C-7.42449626 -0.19183458 -3.91539091 -0.04445422 0 0 Z " fill="#412B43" transform="translate(172.1875,102.9375)"/>
<path d="M0 0 C-0.66 0 -1.32 0 -2 0 C-2 0.66 -2 1.32 -2 2 C-1.38125 2.12375 -0.7625 2.2475 -0.125 2.375 C2 3 2 3 4 5 C3.625 7.125 3.625 7.125 3 9 C2.01 8.34 1.02 7.68 0 7 C0 6.34 0 5.68 0 5 C-0.763125 4.7525 -1.52625 4.505 -2.3125 4.25 C-5.2364045 2.89004442 -6.30004356 1.68414174 -8 -1 C-3.375 -2.25 -3.375 -2.25 0 0 Z " fill="#452F41" transform="translate(41,66)"/>
<path d="M0 0 C9.37877608 -0.1598655 18.65190221 0.33566818 28 1 C28 1.33 28 1.66 28 2 C14.635 2.495 14.635 2.495 1 3 C0.67 2.01 0.34 1.02 0 0 Z " fill="#EAAFE5" transform="translate(156,115)"/>
<path d="M0 0 C3.63402703 4.11856396 6.14575594 7.70699553 5.89453125 13.3828125 C5.6545139 15.60210338 5.36216813 17.79762624 5 20 C4.67 20 4.34 20 4 20 C3.67 16.37 3.34 12.74 3 9 C2.34 9 1.68 9 1 9 C0.67 6.03 0.34 3.06 0 0 Z " fill="#DEADD8" transform="translate(111,164)"/>
<path d="M0 0 C0.99 0.33 1.98 0.66 3 1 C2.34 1 1.68 1 1 1 C1 1.66 1 2.32 1 3 C1.66 3.33 2.32 3.66 3 4 C1.73461631 4.84158536 0.46246221 5.67299748 -0.8125 6.5 C-1.87404297 7.19609375 -1.87404297 7.19609375 -2.95703125 7.90625 C-5 9 -5 9 -8 9 C-7.875 7.25 -7.875 7.25 -7 5 C-4 2.8125 -4 2.8125 -1 1 C-0.67 0.67 -0.34 0.34 0 0 Z " fill="#CC9DC6" transform="translate(62,177)"/>
<path d="M0 0 C0.66 0.33 1.32 0.66 2 1 C2 2.65 2 4.3 2 6 C-1.153368 6.70074844 -3.72724974 7 -7 7 C-7.66 6.01 -8.32 5.02 -9 4 C-7.68 4.33 -6.36 4.66 -5 5 C-5 4.34 -5 3.68 -5 3 C-2.625 1.3125 -2.625 1.3125 0 0 Z " fill="#2B2628" transform="translate(62,170)"/>
<path d="M0 0 C1.32 0.33 2.64 0.66 4 1 C4.28571429 9.57142857 4.28571429 9.57142857 2 13 C2 12.34 2 11.68 2 11 C0.68 10.67 -0.64 10.34 -2 10 C-1.34 6.7 -0.68 3.4 0 0 Z " fill="#443242" transform="translate(115,50)"/>
<path d="M0 0 C3.0916909 2.52956528 3.90931332 5.22454612 5 9 C6.98 9 8.96 9 11 9 C10.67 10.32 10.34 11.64 10 13 C9.34 13 8.68 13 8 13 C8 12.34 8 11.68 8 11 C6.35 11 4.7 11 3 11 C3 10.34 3 9.68 3 9 C2.34 9 1.68 9 1 9 C0 2.25 0 2.25 0 0 Z " fill="#D19CCA" transform="translate(16,49)"/>
<path d="M0 0 C0.66 0.33 1.32 0.66 2 1 C2 1.66 2 2.32 2 3 C2.66 3 3.32 3 4 3 C4.33 3.99 4.66 4.98 5 6 C-0.625 8 -0.625 8 -4 8 C-3.34 7.67 -2.68 7.34 -2 7 C-2 6.01 -2 5.02 -2 4 C-2.66 4 -3.32 4 -4 4 C-4 3.34 -4 2.68 -4 2 C-2.125 0.9375 -2.125 0.9375 0 0 Z " fill="#F4B1EB" transform="translate(67,176)"/>
<path d="M0 0 C3.3125 0.25 3.3125 0.25 7 1 C8.6875 3 8.6875 3 10 5 C12.09415804 5.79623822 12.09415804 5.79623822 14 6 C14 7.32 14 8.64 14 10 C8.6267769 7.52005088 4.02937631 4.33932834 0 0 Z " fill="#D7A2CD" transform="translate(64,75)"/>
<path d="M0 0 C1.32 0.33 2.64 0.66 4 1 C4 1.99 4 2.98 4 4 C4.99 3.67 5.98 3.34 7 3 C7 4.98 7 6.96 7 9 C6.67 7.68 6.34 6.36 6 5 C4.74050951 6.03406673 4.74050951 6.03406673 4.90234375 8.28515625 C4.91394531 9.20167969 4.92554687 10.11820313 4.9375 11.0625 C4.95103516 12.44115234 4.95103516 12.44115234 4.96484375 13.84765625 C4.97644531 14.55792969 4.98804687 15.26820313 5 16 C4.67 16 4.34 16 4 16 C3.96261719 15.38511719 3.92523438 14.77023438 3.88671875 14.13671875 C3.82097656 13.32847656 3.75523438 12.52023438 3.6875 11.6875 C3.62949219 10.88699219 3.57148437 10.08648437 3.51171875 9.26171875 C3.19302806 6.91856765 3.19302806 6.91856765 1.45703125 5.45703125 C0.97621094 4.97621094 0.49539062 4.49539062 0 4 C0 2.68 0 1.36 0 0 Z " fill="#463245" transform="translate(103,172)"/>
<path d="M0 0 C0.99 0 1.98 0 3 0 C2.34 5.94 1.68 11.88 1 18 C0.67 18 0.34 18 0 18 C-0.144375 16.906875 -0.28875 15.81375 -0.4375 14.6875 C-0.88288104 11.06877013 -0.88288104 11.06877013 -2 8 C-1.54451823 5.26187393 -0.74685247 2.6798824 0 0 Z " fill="#E4ABDD" transform="translate(116,32)"/>
<path d="M0 0 C1.65 0.33 3.3 0.66 5 1 C4.45276317 4.37462715 3.9451 6.08235 2 9 C1.01 8.67 0.02 8.34 -1 8 C-0.67 5.36 -0.34 2.72 0 0 Z " fill="#252D28" transform="translate(111,79)"/>
<path d="M0 0 C0.66 0.33 1.32 0.66 2 1 C2 1.99 2 2.98 2 4 C2.66 4.33 3.32 4.66 4 5 C4 5.99 4 6.98 4 8 C3.01 8.33 2.02 8.66 1 9 C-1.6875 7.25 -1.6875 7.25 -4 5 C-4 4.01 -4 3.02 -4 2 C-2.68 2.33 -1.36 2.66 0 3 C0 2.01 0 1.02 0 0 Z " fill="#392935" transform="translate(49,70)"/>
<path d="M0 0 C0.99 0.33 1.98 0.66 3 1 C2.34 2.98 1.68 4.96 1 7 C3.97 7.495 3.97 7.495 7 8 C5.625 9.5 5.625 9.5 4 11 C3.34 11 2.68 11 2 11 C1.32845067 9.71086513 0.66291141 8.41859796 0 7.125 C-0.37125 6.40570313 -0.7425 5.68640625 -1.125 4.9453125 C-2 3 -2 3 -2 1 C-1.34 0.67 -0.68 0.34 0 0 Z " fill="#462947" transform="translate(19,47)"/>
<path d="M0 0 C1 2 1 2 0.5 4.375 C-0.02513723 7.13197047 0.17875981 8.37203139 1 11 C1.34060811 12.66519519 1.67558396 14.33157466 2 16 C0.66666667 16 -0.66666667 16 -2 16 C-2.05423638 14.08364783 -2.09289963 12.16685075 -2.125 10.25 C-2.14820312 9.18265625 -2.17140625 8.1153125 -2.1953125 7.015625 C-2.00487687 4.07529894 -1.52670104 2.47638122 0 0 Z " fill="#50374B" transform="translate(119,33)"/>
<path d="M0 0 C1.98 0 3.96 0 6 0 C5.67 2.31 5.34 4.62 5 7 C1 7 1 7 -1 6 C-0.67 4.02 -0.34 2.04 0 0 Z " fill="#3D2D3A" transform="translate(122,19)"/>
<path d="M0 0 C0.66 0.33 1.32 0.66 2 1 C2.33 0.67 2.66 0.34 3 0 C3.66 0.33 4.32 0.66 5 1 C5.625 4.0625 5.625 4.0625 6 7 C4.02 7.33 2.04 7.66 0 8 C-0.98120464 4.94736336 -0.98120464 3.05263664 0 0 Z " fill="#292429" transform="translate(90,136)"/>
<path d="M0 0 C0.66 1.32 1.32 2.64 2 4 C-1.63195496 5.21065165 -3.06531629 4.62784815 -6.6875 3.5625 C-8.17830078 3.13130859 -8.17830078 3.13130859 -9.69921875 2.69140625 C-10.45847656 2.46324219 -11.21773437 2.23507813 -12 2 C-12 1.67 -12 1.34 -12 1 C-7.93631321 0.22596442 -4.13574827 -0.0984702 0 0 Z " fill="#E3ADDA" transform="translate(214,99)"/>
<path d="M0 0 C0.33 0 0.66 0 1 0 C1 2.64 1 5.28 1 8 C-2.82989106 9.80230168 -5.78121808 10.19622241 -10 10 C-10 9.67 -10 9.34 -10 9 C-8.35 9 -6.7 9 -5 9 C-4.731875 8.443125 -4.46375 7.88625 -4.1875 7.3125 C-2.89596023 4.79739624 -1.52231135 2.3827482 0 0 Z " fill="#D29FCC" transform="translate(117,88)"/>
<path d="M0 0 C1 2 1 2 0.22265625 4.6015625 C-0.16019531 5.59929687 -0.54304688 6.59703125 -0.9375 7.625 C-1.50791016 9.12933594 -1.50791016 9.12933594 -2.08984375 10.6640625 C-2.39019531 11.43492188 -2.69054687 12.20578125 -3 13 C-2.34 13.33 -1.68 13.66 -1 14 C-2.32 13.67 -3.64 13.34 -5 13 C-5.64165788 7.73840541 -4.20577001 5.31407151 -1.09375 1.3203125 C-0.55234375 0.66675781 -0.55234375 0.66675781 0 0 Z " fill="#442440" transform="translate(108,84)"/>
<path d="M0 0 C1.65 0 3.3 0 5 0 C5.33 1.32 5.66 2.64 6 4 C4.35 4.33 2.7 4.66 1 5 C1 5.99 1 6.98 1 8 C-0.32 8 -1.64 8 -3 8 C-2.5359375 7.13375 -2.5359375 7.13375 -2.0625 6.25 C-1.07416636 4.15705816 -0.4831387 2.25464725 0 0 Z " fill="#2C232A" transform="translate(42,183)"/>
<path d="M0 0 C2.25 0.875 2.25 0.875 4 2 C3.67 2.66 3.34 3.32 3 4 C3.66 4 4.32 4 5 4 C4.67 5.32 4.34 6.64 4 8 C1.36 6.02 -1.28 4.04 -4 2 C-2.68 1.34 -1.36 0.68 0 0 Z " fill="#472F42" transform="translate(55,78)"/>
<path d="M0 0 C3.11198065 1.49836105 6.0534615 3.19933758 9 5 C8.67 5.99 8.34 6.98 8 8 C7.34 8 6.68 8 6 8 C6 7.34 6 6.68 6 6 C4.35 6 2.7 6 1 6 C0.67 4.02 0.34 2.04 0 0 Z " fill="#412D3E" transform="translate(36,57)"/>
<path d="M0 0 C0.33 0.99 0.66 1.98 1 3 C2.65 2.34 4.3 1.68 6 1 C5.5359375 2.1446875 5.5359375 2.1446875 5.0625 3.3125 C4.32106407 5.18789677 3.63771783 7.08684652 3 9 C1.68 8.67 0.36 8.34 -1 8 C-0.67 5.36 -0.34 2.72 0 0 Z " fill="#362832" transform="translate(102,163)"/>
<path d="M0 0 C1.32 0 2.64 0 4 0 C4.125 2.375 4.125 2.375 4 5 C3.34 5.66 2.68 6.32 2 7 C1.01 7 0.02 7 -1 7 C-1.04254356 5.00045254 -1.04080783 2.99958364 -1 1 C-0.67 0.67 -0.34 0.34 0 0 Z " fill="#362B34" transform="translate(85,124)"/>
<path d="M0 0 C0.66 0 1.32 0 2 0 C2.33 0.99 2.66 1.98 3 3 C2.34 3 1.68 3 1 3 C1 3.66 1 4.32 1 5 C1.66 5 2.32 5 3 5 C2.67 6.32 2.34 7.64 2 9 C-0.9375 8.1875 -0.9375 8.1875 -4 7 C-4.33 6.01 -4.66 5.02 -5 4 C-4.01 4.33 -3.02 4.66 -2 5 C-1.34 3.35 -0.68 1.7 0 0 Z " fill="#EAA6E0" transform="translate(109,120)"/>
<path d="M0 0 C0.38800781 0.48082031 0.77601563 0.96164063 1.17578125 1.45703125 C3.54088647 3.45749498 5.12691453 3.48876068 8.1875 3.6875 C9.08855469 3.75324219 9.98960937 3.81898437 10.91796875 3.88671875 C11.60503906 3.92410156 12.29210937 3.96148437 13 4 C13 4.33 13 4.66 13 5 C7.06 5.33 1.12 5.66 -5 6 C-5 5.34 -5 4.68 -5 4 C-4.0409375 3.8453125 -4.0409375 3.8453125 -3.0625 3.6875 C-2.381875 3.460625 -1.70125 3.23375 -1 3 C-0.67 2.01 -0.34 1.02 0 0 Z " fill="#4B3448" transform="translate(143,111)"/>
<path d="M0 0 C0.12375 0.639375 0.2475 1.27875 0.375 1.9375 C0.684375 2.9584375 0.684375 2.9584375 1 4 C1.66 4.33 2.32 4.66 3 5 C2.67 5.66 2.34 6.32 2 7 C3.65 7 5.3 7 7 7 C7 7.33 7 7.66 7 8 C5.02 8.33 3.04 8.66 1 9 C0.67 7.68 0.34 6.36 0 5 C-0.99 5.33 -1.98 5.66 -3 6 C-3.66 5.34 -4.32 4.68 -5 4 C-3.35 2.68 -1.7 1.36 0 0 Z " fill="#473342" transform="translate(47,178)"/>
<path d="M0 0 C2.4375 0.6875 2.4375 0.6875 5 2 C5.8125 4.625 5.8125 4.625 6 7 C4.02 7 2.04 7 0 7 C0.33 6.01 0.66 5.02 1 4 C0.61067144 1.85744207 0.61067144 1.85744207 0 0 Z " fill="#523150" transform="translate(209,102)"/>
<path d="M0 0 C1.32 1.65 2.64 3.3 4 5 C2.515 7.475 2.515 7.475 1 10 C-0.32 9.67 -1.64 9.34 -3 9 C-2.34 8.01 -1.68 7.02 -1 6 C-0.60986284 4.0103005 -0.26797351 2.00980131 0 0 Z " fill="#E4ADDE" transform="translate(90,95)"/>
<path d="M0 0 C4.42857143 5.14285714 4.42857143 5.14285714 5 9 C3.68 9.33 2.36 9.66 1 10 C0.01 7.36 -0.98 4.72 -2 2 C-1.34 2 -0.68 2 0 2 C0 1.34 0 0.68 0 0 Z " fill="#DBAFDA" transform="translate(85,135)"/>
<path d="M0 0 C0.66 0.33 1.32 0.66 2 1 C1.01 2.98 0.02 4.96 -1 7 C-1.66 6.67 -2.32 6.34 -3 6 C-3.33 6.33 -3.66 6.66 -4 7 C-5 8 -5 8 -7.5625 8.0625 C-8.366875 8.041875 -9.17125 8.02125 -10 8 C-9.67 7.34 -9.34 6.68 -9 6 C-7.68 6 -6.36 6 -5 6 C-5 5.34 -5 4.68 -5 4 C-3.37373596 2.61767557 -1.7074998 1.28062485 0 0 Z " fill="#E0A9D5" transform="translate(49,186)"/>
<path d="M0 0 C1.65 0 3.3 0 5 0 C3.515 5.445 3.515 5.445 2 11 C0 9 0 9 -0.1953125 6.8359375 C-0.17210938 6.02382812 -0.14890625 5.21171875 -0.125 4.375 C-0.10695313 3.55773437 -0.08890625 2.74046875 -0.0703125 1.8984375 C-0.04710938 1.27195312 -0.02390625 0.64546875 0 0 Z " fill="#E9ABE2" transform="translate(120,104)"/>
<path d="M0 0 C0.66 0 1.32 0 2 0 C2 0.66 2 1.32 2 2 C2.99 1.67 3.98 1.34 5 1 C5.66666667 2.33333333 6.33333333 3.66666667 7 5 C6.34 5 5.68 5 5 5 C5 5.66 5 6.32 5 7 C3.02 6.34 1.04 5.68 -1 5 C-1 4.34 -1 3.68 -1 3 C-0.34 3 0.32 3 1 3 C0.67 2.01 0.34 1.02 0 0 Z " fill="#453647" transform="translate(28,58)"/>
<path d="M0 0 C0.33 0.66 0.66 1.32 1 2 C1.99 1.67 2.98 1.34 4 1 C4 1.99 4 2.98 4 4 C1 6.1875 1 6.1875 -2 8 C-2 7.34 -2 6.68 -2 6 C-2.66 5.67 -3.32 5.34 -4 5 C-3.01 5 -2.02 5 -1 5 C-0.67 3.35 -0.34 1.7 0 0 Z " fill="#E8AEDE" transform="translate(72,151)"/>
<path d="M0 0 C2 2 2 2 2.125 5.625 C2.08375 6.73875 2.0425 7.8525 2 9 C0.02 9.99 0.02 9.99 -2 11 C-2.24042276 6.91281305 -1.42258812 3.82320557 0 0 Z " fill="#51334D" transform="translate(110,129)"/>
<path d="M0 0 C0.33 0 0.66 0 1 0 C1.33 3.96 1.66 7.92 2 12 C0.02 12.99 0.02 12.99 -2 14 C-1.34 9.38 -0.68 4.76 0 0 Z " fill="#DCA3D7" transform="translate(121,68)"/>
<path d="M0 0 C1.98 0.99 1.98 0.99 4 2 C3.67 4.97 3.34 7.94 3 11 C2.01 10.67 1.02 10.34 0 10 C0.185625 8.906875 0.37125 7.81375 0.5625 6.6875 C1.2578068 3.06375867 1.2578068 3.06375867 0 0 Z " fill="#F4B1EA" transform="translate(112,42)"/>
<path d="M0 0 C-1.1196986 1.00593243 -2.2459412 2.0045849 -3.375 3 C-4.00148438 3.556875 -4.62796875 4.11375 -5.2734375 4.6875 C-7 6 -7 6 -9 6 C-9 4.68 -9 3.36 -9 2 C-3.375 -1.125 -3.375 -1.125 0 0 Z " fill="#DFACDC" transform="translate(51,176)"/>
<path d="M0 0 C1.9375 0.625 1.9375 0.625 4 2 C4.75 5.125 4.75 5.125 5 8 C4.34 8 3.68 8 3 8 C3 7.34 3 6.68 3 6 C1.68 5.67 0.36 5.34 -1 5 C-0.67 3.35 -0.34 1.7 0 0 Z " fill="#E2ACDD" transform="translate(99,170)"/>
<path d="M0 0 C0.66 0.33 1.32 0.66 2 1 C1.01 3.31 0.02 5.62 -1 8 C-4 6 -4 6 -5 5 C-5 4.34 -5 3.68 -5 3 C-2.625 1.3125 -2.625 1.3125 0 0 Z " fill="#DFA6D9" transform="translate(80,165)"/>
<path d="M0 0 C1.98 0 3.96 0 6 0 C6.99 1.98 7.98 3.96 9 6 C6.03824877 5.38722388 4.61941217 4.74627478 2 3 C2 2.34 2 1.68 2 1 C1.34 0.67 0.68 0.34 0 0 Z " fill="#432941" transform="translate(87,123)"/>
<path d="M0 0 C0 0.33 0 0.66 0 1 C-2.97 1 -5.94 1 -9 1 C-9 1.66 -9 2.32 -9 3 C-11.31 2.67 -13.62 2.34 -16 2 C-10.54085459 -1.63943027 -6.22885348 -0.95016409 0 0 Z " fill="#C996C1" transform="translate(200,112)"/>
<path d="M0 0 C0.99 0 1.98 0 3 0 C3.66 0.99 4.32 1.98 5 3 C4.38125 3.4125 3.7625 3.825 3.125 4.25 C0.93231719 6.05573879 0.07211583 7.4090534 -1 10 C-1.125 3.375 -1.125 3.375 0 0 Z " fill="#E2A9DA" transform="translate(33,184)"/>
<path d="M0 0 C2 0.125 2 0.125 4 1 C5.25 3.0625 5.25 3.0625 6 5 C5.34 5.66 4.68 6.32 4 7 C2.02 5.35 0.04 3.7 -2 2 C-1.34 1.34 -0.68 0.68 0 0 Z " fill="#DCA6D6" transform="translate(58,68)"/>
<path d="M0 0 C-0.33 4.29 -0.66 8.58 -1 13 C-3 11 -3 11 -3.1953125 8.6171875 C-3.17210938 7.71226562 -3.14890625 6.80734375 -3.125 5.875 C-3.10695313 4.96492187 -3.08890625 4.05484375 -3.0703125 3.1171875 C-3.04710938 2.41851562 -3.02390625 1.71984375 -3 1 C-1 0 -1 0 0 0 Z " fill="#402C3D" transform="translate(114,173)"/>
<path d="M0 0 C-0.66 0 -1.32 0 -2 0 C-2.268125 0.639375 -2.53625 1.27875 -2.8125 1.9375 C-4 4 -4 4 -7 5 C-7.33 3.68 -7.66 2.36 -8 1 C-4.93251126 -0.86240388 -3.40254489 -1.2151946 0 0 Z " fill="#E1ACDC" transform="translate(84,148)"/>
<path d="M0 0 C2.475 0.495 2.475 0.495 5 1 C5 1.99 5 2.98 5 4 C4.34 4.66 3.68 5.32 3 6 C2.01 6 1.02 6 0 6 C0 4.02 0 2.04 0 0 Z " fill="#F2AEEA" transform="translate(107,98)"/>
<path d="M0 0 C3.63 0.33 7.26 0.66 11 1 C11 1.66 11 2.32 11 3 C9.54257537 3.08096803 8.08387193 3.13917774 6.625 3.1875 C5.81289062 3.22230469 5.00078125 3.25710937 4.1640625 3.29296875 C3.44992188 3.19628906 2.73578125 3.09960938 2 3 C1.34 2.01 0.68 1.02 0 0 Z " fill="#F5B1EC" transform="translate(170,99)"/>
<path d="M0 0 C0.66 0 1.32 0 2 0 C2 0.66 2 1.32 2 2 C2.99 2 3.98 2 5 2 C5.33 2.99 5.66 3.98 6 5 C5.34 5 4.68 5 4 5 C4 6.32 4 7.64 4 9 C3.01 8.67 2.02 8.34 1 8 C0.67 7.01 0.34 6.02 0 5 C0.99 4.67 1.98 4.34 3 4 C2.2575 3.2884375 2.2575 3.2884375 1.5 2.5625 C0 1 0 1 0 0 Z " fill="#554054" transform="translate(84,90)"/>
<path d="M0 0 C2.125 0.375 2.125 0.375 4 1 C4 1.66 4 2.32 4 3 C4.99 3.33 5.98 3.66 7 4 C6.67 4.66 6.34 5.32 6 6 C0.25 4.25 0.25 4.25 -2 2 C-1.34 1.34 -0.68 0.68 0 0 Z " fill="#E2A4DC" transform="translate(19,44)"/>
<path d="M0 0 C0.598125 0.20625 1.19625 0.4125 1.8125 0.625 C1.8125 1.945 1.8125 3.265 1.8125 4.625 C-0.1675 4.625 -2.1475 4.625 -4.1875 4.625 C-4.5175 3.635 -4.8475 2.645 -5.1875 1.625 C-2.1875 -0.375 -2.1875 -0.375 0 0 Z " fill="#27262A" transform="translate(69.1875,167.375)"/>
<path d="M0 0 C0.99 0.66 1.98 1.32 3 2 C1.02 3.32 -0.96 4.64 -3 6 C-3.99 5.34 -4.98 4.68 -6 4 C-4.02 2.68 -2.04 1.36 0 0 Z " fill="#482C43" transform="translate(81,161)"/>
<path d="M0 0 C0.33 0.66 0.66 1.32 1 2 C1.99 2.33 2.98 2.66 4 3 C3.01 4.485 3.01 4.485 2 6 C1.34 5.67 0.68 5.34 0 5 C-0.99 4.67 -1.98 4.34 -3 4 C-3 4.66 -3 5.32 -3 6 C-3.66 5.67 -4.32 5.34 -5 5 C-4.67 4.34 -4.34 3.68 -4 3 C-3.34 3 -2.68 3 -2 3 C-1.67 2.34 -1.34 1.68 -1 1 C-0.67 0.67 -0.34 0.34 0 0 Z " fill="#2B202B" transform="translate(105,129)"/>
<path d="M0 0 C0.33 0 0.66 0 1 0 C1 1.65 1 3.3 1 5 C1.99 5 2.98 5 4 5 C4 5.66 4 6.32 4 7 C3.34 7 2.68 7 2 7 C1.67 7.66 1.34 8.32 1 9 C-1 7 -1 7 -1.1875 3.9375 C-1 1 -1 1 0 0 Z " fill="#4F2E47" transform="translate(83,126)"/>
<path d="M0 0 C0.99 0.33 1.98 0.66 3 1 C3 1.66 3 2.32 3 3 C3.66 3.33 4.32 3.66 5 4 C2 6 2 6 -2 6 C-2 5.34 -2 4.68 -2 4 C-1.34 4 -0.68 4 0 4 C0 2.68 0 1.36 0 0 Z " fill="#E5ABE0" transform="translate(51,168)"/>
<path d="M0 0 C0.33 0 0.66 0 1 0 C1.37211538 7.56634615 1.37211538 7.56634615 -0.51171875 9.76171875 C-1.00285156 10.17035156 -1.49398437 10.57898438 -2 11 C-1.85957123 9.35369672 -1.71250671 7.70795821 -1.5625 6.0625 C-1.48128906 5.14597656 -1.40007812 4.22945313 -1.31640625 3.28515625 C-1 1 -1 1 0 0 Z " fill="#3E263D" transform="translate(116,82)"/>
<path d="M0 0 C0.7425 0.185625 1.485 0.37125 2.25 0.5625 C4.94990963 0.99203108 6.44631077 0.85122974 9 0 C8.67 1.65 8.34 3.3 8 5 C4.62496331 3.8141763 2.35277269 2.72426311 0 0 Z " fill="#D8A0D2" transform="translate(48,64)"/>
<path d="M0 0 C0.33 0 0.66 0 1 0 C0.88541307 1.43836751 0.75790884 2.87570966 0.625 4.3125 C0.55539063 5.11300781 0.48578125 5.91351563 0.4140625 6.73828125 C0 9 0 9 -2 12 C-3.12377697 8.69564916 -2.89554742 6.9493138 -1.5625 3.75 C-1.27503906 3.04359375 -0.98757812 2.3371875 -0.69140625 1.609375 C-0.46324219 1.07828125 -0.23507813 0.5471875 0 0 Z " fill="#4F324B" transform="translate(123,56)"/>
<path d="M0 0 C-0.66 1.32 -1.32 2.64 -2 4 C-3.65 4 -5.3 4 -7 4 C-6.6875 2.0625 -6.6875 2.0625 -6 0 C-3 -1 -3 -1 0 0 Z " fill="#F3B1EA" transform="translate(25,60)"/>
<path d="M0 0 C0.66 0.33 1.32 0.66 2 1 C1.67 1.66 1.34 2.32 1 3 C-0.32 3 -1.64 3 -3 3 C-2.01 3.33 -1.02 3.66 0 4 C-0.66 5.32 -1.32 6.64 -2 8 C-2.99 7.01 -3.98 6.02 -5 5 C-4.67 4.01 -4.34 3.02 -4 2 C-2.68 2 -1.36 2 0 2 C0 1.34 0 0.68 0 0 Z " fill="#D9A1CF" transform="translate(73,170)"/>
<path d="M0 0 C1.65 0.33 3.3 0.66 5 1 C4.01 1.495 4.01 1.495 3 2 C3 2.66 3 3.32 3 4 C1.35 4.33 -0.3 4.66 -2 5 C-1 2 -1 2 0 0 Z " fill="#E2ABD9" transform="translate(58,164)"/>
<path d="M0 0 C1 3 1 3 1 5 C0.360625 5.12375 -0.27875 5.2475 -0.9375 5.375 C-1.9584375 5.684375 -1.9584375 5.684375 -3 6 C-3.33 6.66 -3.66 7.32 -4 8 C-4.25 5.6875 -4.25 5.6875 -4 3 C-2 1.1875 -2 1.1875 0 0 Z " fill="#D1A1CF" transform="translate(108,141)"/>
<path d="M0 0 C2.46800047 1.15173355 4.04783565 2.04783565 6 4 C5.01 4.66 4.02 5.32 3 6 C1.68 4.68 0.36 3.36 -1 2 C-0.67 1.34 -0.34 0.68 0 0 Z " fill="#E1A8DB" transform="translate(79,83)"/>
<path d="M0 0 C3.37503669 1.1858237 5.64722731 2.27573689 8 5 C6.02 5 4.04 5 2 5 C2 4.34 2 3.68 2 3 C1.34 3 0.68 3 0 3 C0 2.01 0 1.02 0 0 Z " fill="#412A40" transform="translate(23,49)"/>
<path d="M0 0 C0.99 1.32 1.98 2.64 3 4 C3.99 3.67 4.98 3.34 6 3 C6.33 3.99 6.66 4.98 7 6 C6.34 6.66 5.68 7.32 5 8 C5 7.34 5 6.68 5 6 C4.01 6.33 3.02 6.66 2 7 C1.34 6.67 0.68 6.34 0 6 C0 4.02 0 2.04 0 0 Z " fill="#4B374B" transform="translate(120,26)"/>
<path d="M0 0 C0.66 0.99 1.32 1.98 2 3 C0.35 4.65 -1.3 6.3 -3 8 C-3.33 7.34 -3.66 6.68 -4 6 C-1.68421053 1.68421053 -1.68421053 1.68421053 0 0 Z " fill="#422F42" transform="translate(41,183)"/>
<path d="M0 0 C3 1 3 1 4 3 C4.039992 4.99960012 4.04346799 7.00047242 4 9 C2.29159719 7.36587557 1.06546953 6.13093906 0 4 C0 2.68 0 1.36 0 0 Z " fill="#F3BAF2" transform="translate(102,178)"/>
<path d="M0 0 C2.64 0 5.28 0 8 0 C7.01 0.495 7.01 0.495 6 1 C4.86649466 3.01669827 4.86649466 3.01669827 4 5 C3.67 4.34 3.34 3.68 3 3 C2.34 3 1.68 3 1 3 C0.67 2.01 0.34 1.02 0 0 Z " fill="#E0B0D8" transform="translate(96,128)"/>
<path d="M0 0 C0.66 0 1.32 0 2 0 C1.125 4.75 1.125 4.75 0 7 C-0.66 7 -1.32 7 -2 7 C-1.125 1.125 -1.125 1.125 0 0 Z " fill="#E7AFE0" transform="translate(113,53)"/>
<path d="M0 0 C0.66 0 1.32 0 2 0 C3.4216319 3.3171411 4.39009109 6.44219804 5 10 C4.67 9.01 4.34 8.02 4 7 C1.98491642 6.26676204 1.98491642 6.26676204 0 6 C0 4.02 0 2.04 0 0 Z " fill="#AB80A4" transform="translate(108,188)"/>
<path d="M0 0 C0 1.66666667 0 3.33333333 0 5 C-0.66 5 -1.32 5 -2 5 C-2 5.66 -2 6.32 -2 7 C-2.66 7 -3.32 7 -4 7 C-3.6875 4.625 -3.6875 4.625 -3 2 C-2.01 1.34 -1.02 0.68 0 0 Z " fill="#4C2B48" transform="translate(37,187)"/>
<path d="M0 0 C1.65 0 3.3 0 5 0 C5 0.66 5 1.32 5 2 C4.34 2 3.68 2 3 2 C2.67 2.99 2.34 3.98 2 5 C2 4.34 2 3.68 2 3 C1.01 3.33 0.02 3.66 -1 4 C-0.67 2.68 -0.34 1.36 0 0 Z " fill="#F1B2E9" transform="translate(51,186)"/>
<path d="M0 0 C0.66 0.33 1.32 0.66 2 1 C2 1.99 2 2.98 2 4 C1.34 4 0.68 4 0 4 C0 4.66 0 5.32 0 6 C-1.32 5.34 -2.64 4.68 -4 4 C-2.68 2.68 -1.36 1.36 0 0 Z " fill="#4B364A" transform="translate(57,169)"/>
<path d="M0 0 C0.33 0.66 0.66 1.32 1 2 C-0.32 3.65 -1.64 5.3 -3 7 C-3.99 6.67 -4.98 6.34 -6 6 C-5.34 5.01 -4.68 4.02 -4 3 C-3.34 3 -2.68 3 -2 3 C-2 2.34 -2 1.68 -2 1 C-1.34 0.67 -0.68 0.34 0 0 Z " fill="#DBA6D1" transform="translate(90,157)"/>
<path d="M0 0 C0.75 1.75 0.75 1.75 1 4 C-0.9375 6.25 -0.9375 6.25 -3 8 C-3.33 7.01 -3.66 6.02 -4 5 C-3.34 5 -2.68 5 -2 5 C-1.7834375 4.0409375 -1.7834375 4.0409375 -1.5625 3.0625 C-1 1 -1 1 0 0 Z " fill="#3B2C3F" transform="translate(108,136)"/>
<path d="M0 0 C1.98 0 3.96 0 6 0 C6 0.66 6 1.32 6 2 C5.01 2.33 4.02 2.66 3 3 C2.67 3.66 2.34 4.32 2 5 C1.34 5 0.68 5 0 5 C0 3.35 0 1.7 0 0 Z " fill="#382632" transform="translate(124,107)"/>
<path d="M0 0 C0 1.65 0 3.3 0 5 C-1.32 4.67 -2.64 4.34 -4 4 C-4 3.01 -4 2.02 -4 1 C-2 0 -2 0 0 0 Z " fill="#F3B5ED" transform="translate(109,146)"/>
<path d="M0 0 C1.32 0.66 2.64 1.32 4 2 C2.625 4 2.625 4 1 6 C0.34 6 -0.32 6 -1 6 C-0.67 4.02 -0.34 2.04 0 0 Z " fill="#3D273C" transform="translate(112,62)"/>
<path d="M0 0 C1.98 0 3.96 0 6 0 C6 0.66 6 1.32 6 2 C3 4 3 4 0 4 C0 2.68 0 1.36 0 0 Z " fill="#4C2446" transform="translate(122,19)"/>
</svg>
